<svg width="72" height="66" viewBox="0 0 72 66" fill="none" xmlns="http://www.w3.org/2000/svg">
<g clip-path="url(#clip0_2011_169)">
<path d="M70.6368 51.7533C70.7047 54.1325 70.0257 56.3848 68.8035 58.32C68.1244 59.462 67.2077 60.5089 66.1892 61.3654C63.8465 63.3957 60.7569 64.6329 57.3278 64.7281C52.3709 64.8232 47.9911 62.444 45.5806 58.7958C44.2904 56.9241 43.5095 54.6718 43.4756 52.2925C43.3737 48.2954 45.275 44.679 48.3307 42.2997C50.6394 40.5232 53.5592 39.4129 56.7506 39.3495C58.5342 39.3116 60.3083 39.6024 61.9715 40.2053C63.6347 40.8082 65.1545 41.7114 66.4441 42.8632C67.7336 44.0151 68.7676 45.3931 69.4871 46.9185C70.2065 48.4439 70.5972 50.0867 70.6368 51.7533Z" stroke="white" stroke-width="1.5" stroke-miterlimit="10" stroke-linecap="round" stroke-linejoin="round"/>
<path d="M52.5396 52.2382L55.9698 55.2478L63.0679 48.9151M4.07544 19.0385L34.0641 35.0583L63.849 19.1325M34.0641 63.4615V35.027" stroke="white" stroke-width="1.5" stroke-linecap="round" stroke-linejoin="round"/>
<path d="M66.5659 24.0203V41.9799C66.5659 42.1385 66.5659 42.2654 66.532 42.4241C64.1571 40.4885 61.1037 39.3462 57.711 39.3462C54.5219 39.3462 51.5702 40.3933 49.2293 42.1385C47.6368 43.3222 46.3516 44.8278 45.4702 46.5424C44.5888 48.257 44.1341 50.1361 44.1402 52.0385C44.1402 54.4183 44.8527 56.6712 46.108 58.5751C46.4134 59.0828 46.7865 59.5587 47.1937 60.0029L40.985 63.2078C37.1174 65.2385 30.807 65.2385 26.9393 63.2078L8.82232 53.8154C4.71716 51.6895 1.3584 46.3587 1.3584 41.9799V24.0203C1.3584 19.6414 4.71716 14.3106 8.82232 12.1847L26.9393 2.79236C30.807 0.761595 37.1174 0.761595 40.985 2.79236L59.102 12.1847C63.2072 14.3106 66.5659 19.6414 66.5659 24.0203Z" stroke="white" stroke-width="1.5" stroke-linecap="round" stroke-linejoin="round"/>
</g>
<defs>
<clipPath id="clip0_2011_169">
<rect width="72" height="66" fill="white"/>
</clipPath>
</defs>
</svg>
